{
    "asset" : {
        "generator" : "Khronos glTF Blender I/O v3.4.50",
        "version" : "2.0"
    },
    "scene" : 0,
    "scenes" : [
        {
            "name" : "Track3",
            "nodes" : [
                0,
                1,
                2,
                3,
                4,
                5,
                6,
                7
            ]
        }
    ],
    "nodes" : [
        {
            "mesh" : 0,
            "name" : "Kart",
            "translation" : [
                0,
                1.3847306966781616,
                0
            ]
        },
        {
            "mesh" : 1,
            "name" : "OrangeTrack"
        },
        {
            "mesh" : 2,
            "name" : "BlueTrack"
        },
        {
            "mesh" : 3,
            "name" : "Blocks"
        },
        {
            "mesh" : 4,
            "name" : "Globe"
        },
        {
            "mesh" : 5,
            "name" : "Rings2"
        },
        {
            "mesh" : 6,
            "name" : "Rings6"
        },
        {
            "mesh" : 7,
            "name" : "Screen"
        }
    ],
    "meshes" : [
        {
            "name" : "Kart",
            "primitives" : [
                {
                    "attributes" : {
                        "POSITION" : 0,
                        "TEXCOORD_0" : 1,
                        "NORMAL" : 2
                    },
                    "indices" : 3
                }
            ]
        },
        {
            "name" : "OrangeTrack",
            "primitives" : [
                {
                    "attributes" : {
                        "POSITION" : 4,
                        "TEXCOORD_0" : 5,
                        "NORMAL" : 6
                    },
                    "indices" : 7
                }
            ]
        },
        {
            "name" : "BlueTrack",
            "primitives" : [
                {
                    "attributes" : {
                        "POSITION" : 8,
                        "TEXCOORD_0" : 9,
                        "NORMAL" : 10
                    },
                    "indices" : 11
                }
            ]
        },
        {
            "name" : "Blocks",
            "primitives" : [
                {
                    "attributes" : {
                        "POSITION" : 12,
                        "TEXCOORD_0" : 13,
                        "NORMAL" : 14
                    },
                    "indices" : 15
                }
            ]
        },
        {
            "name" : "Globe",
            "primitives" : [
                {
                    "attributes" : {
                        "POSITION" : 16,
                        "TEXCOORD_0" : 17,
                        "NORMAL" : 18
                    },
                    "indices" : 19
                }
            ]
        },
        {
            "name" : "Rings2",
            "primitives" : [
                {
                    "attributes" : {
                        "POSITION" : 20,
                        "TEXCOORD_0" : 21,
                        "NORMAL" : 22
                    },
                    "indices" : 23
                }
            ]
        },
        {
            "name" : "Rings6",
            "primitives" : [
                {
                    "attributes" : {
                        "POSITION" : 24,
                        "TEXCOORD_0" : 25,
                        "NORMAL" : 26
                    },
                    "indices" : 27
                }
            ]
        },
        {
            "name" : "Screen",
            "primitives" : [
                {
                    "attributes" : {
                        "POSITION" : 28,
                        "TEXCOORD_0" : 29,
                        "NORMAL" : 30
                    },
                    "indices" : 31
                }
            ]
        }
    ],
    "accessors" : [
        {
            "bufferView" : 0,
            "componentType" : 5126,
            "count" : 1294,
            "max" : [
                3.5900325775146484,
                2.130605697631836,
                7.508015155792236
            ],
            "min" : [
                -3.0686898231506348,
                -1.3667770624160767,
                -1.0168676376342773
            ],
            "type" : "VEC3"
        },
        {
            "bufferView" : 1,
            "componentType" : 5126,
            "count" : 1294,
            "type" : "VEC2"
        },
        {
            "bufferView" : 2,
            "componentType" : 5126,
            "count" : 1294,
            "type" : "VEC3"
        },
        {
            "bufferView" : 3,
            "componentType" : 5123,
            "count" : 5715,
            "type" : "SCALAR"
        },
        {
            "bufferView" : 4,
            "componentType" : 5126,
            "count" : 2738,
            "max" : [
                11.22799015045166,
                242.27890014648438,
                715.8829345703125
            ],
            "min" : [
                -1074.3994140625,
                -208.90878295898438,
                -714.8081665039062
            ],
            "type" : "VEC3"
        },
        {
            "bufferView" : 5,
            "componentType" : 5126,
            "count" : 2738,
            "type" : "VEC2"
        },
        {
            "bufferView" : 6,
            "componentType" : 5126,
            "count" : 2738,
            "type" : "VEC3"
        },
        {
            "bufferView" : 7,
            "componentType" : 5123,
            "count" : 4248,
            "type" : "SCALAR"
        },
        {
            "bufferView" : 8,
            "componentType" : 5126,
            "count" : 2782,
            "max" : [
                42.680816650390625,
                242.27890014648438,
                666.5948486328125
            ],
            "min" : [
                -1105.85205078125,
                -209.69705200195312,
                -665.5201416015625
            ],
            "type" : "VEC3"
        },
        {
            "bufferView" : 9,
            "componentType" : 5126,
            "count" : 2782,
            "type" : "VEC2"
        },
        {
            "bufferView" : 10,
            "componentType" : 5126,
            "count" : 2782,
            "type" : "VEC3"
        },
        {
            "bufferView" : 11,
            "componentType" : 5123,
            "count" : 4248,
            "type" : "SCALAR"
        },
        {
            "bufferView" : 12,
            "componentType" : 5126,
            "count" : 4176,
            "max" : [
                -217.83493041992188,
                -52.29349136352539,
                232.3782196044922
            ],
            "min" : [
                -738.1907958984375,
                -244.25961303710938,
                -111.23641204833984
            ],
            "type" : "VEC3"
        },
        {
            "bufferView" : 13,
            "componentType" : 5126,
            "count" : 4176,
            "type" : "VEC2"
        },
        {
            "bufferView" : 14,
            "componentType" : 5126,
            "count" : 4176,
            "type" : "VEC3"
        },
        {
            "bufferView" : 15,
            "componentType" : 5123,
            "count" : 6930,
            "type" : "SCALAR"
        },
        {
            "bufferView" : 16,
            "componentType" : 5126,
            "count" : 2464,
            "max" : [
                -621.4615478515625,
                106.21685028076172,
                622.8389892578125
            ],
            "min" : [
                -806.5348510742188,
                -127.82902526855469,
                437.7658386230469
            ],
            "type" : "VEC3"
        },
        {
            "bufferView" : 17,
            "componentType" : 5126,
            "count" : 2464,
            "type" : "VEC2"
        },
        {
            "bufferView" : 18,
            "componentType" : 5126,
            "count" : 2464,
            "type" : "VEC3"
        },
        {
            "bufferView" : 19,
            "componentType" : 5123,
            "count" : 3648,
            "type" : "SCALAR"
        },
        {
            "bufferView" : 20,
            "componentType" : 5126,
            "count" : 4608,
            "max" : [
                -767.3021850585938,
                179.00848388671875,
                -357.98828125
            ],
            "min" : [
                -932.4905395507812,
                23.881507873535156,
                -514.4561767578125
            ],
            "type" : "VEC3"
        },
        {
            "bufferView" : 21,
            "componentType" : 5126,
            "count" : 4608,
            "type" : "VEC2"
        },
        {
            "bufferView" : 22,
            "componentType" : 5126,
            "count" : 4608,
            "type" : "VEC3"
        },
        {
            "bufferView" : 23,
            "componentType" : 5123,
            "count" : 6912,
            "type" : "SCALAR"
        },
        {
            "bufferView" : 24,
            "componentType" : 5126,
            "count" : 13824,
            "max" : [
                71.4395523071289,
                70.51807403564453,
                203.19744873046875
            ],
            "min" : [
                -67.35836791992188,
                -68.27983856201172,
                -148.74423217773438
            ],
            "type" : "VEC3"
        },
        {
            "bufferView" : 25,
            "componentType" : 5126,
            "count" : 13824,
            "type" : "VEC2"
        },
        {
            "bufferView" : 26,
            "componentType" : 5126,
            "count" : 13824,
            "type" : "VEC3"
        },
        {
            "bufferView" : 27,
            "componentType" : 5123,
            "count" : 20736,
            "type" : "SCALAR"
        },
        {
            "bufferView" : 28,
            "componentType" : 5126,
            "count" : 126,
            "max" : [
                -279.8438415527344,
                -45.836917877197266,
                -301.7812805175781
            ],
            "min" : [
                -487.050048828125,
                -208.19871520996094,
                -375.4981689453125
            ],
            "type" : "VEC3"
        },
        {
            "bufferView" : 29,
            "componentType" : 5126,
            "count" : 126,
            "type" : "VEC2"
        },
        {
            "bufferView" : 30,
            "componentType" : 5126,
            "count" : 126,
            "type" : "VEC3"
        },
        {
            "bufferView" : 31,
            "componentType" : 5123,
            "count" : 216,
            "type" : "SCALAR"
        }
    ],
    "bufferViews" : [
        {
            "buffer" : 0,
            "byteLength" : 15528,
            "byteOffset" : 0,
            "target" : 34962
        },
        {
            "buffer" : 0,
            "byteLength" : 10352,
            "byteOffset" : 15528,
            "target" : 34962
        },
        {
            "buffer" : 0,
            "byteLength" : 15528,
            "byteOffset" : 25880,
            "target" : 34962
        },
        {
            "buffer" : 0,
            "byteLength" : 11430,
            "byteOffset" : 41408,
            "target" : 34963
        },
        {
            "buffer" : 0,
            "byteLength" : 32856,
            "byteOffset" : 52840,
            "target" : 34962
        },
        {
            "buffer" : 0,
            "byteLength" : 21904,
            "byteOffset" : 85696,
            "target" : 34962
        },
        {
            "buffer" : 0,
            "byteLength" : 32856,
            "byteOffset" : 107600,
            "target" : 34962
        },
        {
            "buffer" : 0,
            "byteLength" : 8496,
            "byteOffset" : 140456,
            "target" : 34963
        },
        {
            "buffer" : 0,
            "byteLength" : 33384,
            "byteOffset" : 148952,
            "target" : 34962
        },
        {
            "buffer" : 0,
            "byteLength" : 22256,
            "byteOffset" : 182336,
            "target" : 34962
        },
        {
            "buffer" : 0,
            "byteLength" : 33384,
            "byteOffset" : 204592,
            "target" : 34962
        },
        {
            "buffer" : 0,
            "byteLength" : 8496,
            "byteOffset" : 237976,
            "target" : 34963
        },
        {
            "buffer" : 0,
            "byteLength" : 50112,
            "byteOffset" : 246472,
            "target" : 34962
        },
        {
            "buffer" : 0,
            "byteLength" : 33408,
            "byteOffset" : 296584,
            "target" : 34962
        },
        {
            "buffer" : 0,
            "byteLength" : 50112,
            "byteOffset" : 329992,
            "target" : 34962
        },
        {
            "buffer" : 0,
            "byteLength" : 13860,
            "byteOffset" : 380104,
            "target" : 34963
        },
        {
            "buffer" : 0,
            "byteLength" : 29568,
            "byteOffset" : 393964,
            "target" : 34962
        },
        {
            "buffer" : 0,
            "byteLength" : 19712,
            "byteOffset" : 423532,
            "target" : 34962
        },
        {
            "buffer" : 0,
            "byteLength" : 29568,
            "byteOffset" : 443244,
            "target" : 34962
        },
        {
            "buffer" : 0,
            "byteLength" : 7296,
            "byteOffset" : 472812,
            "target" : 34963
        },
        {
            "buffer" : 0,
            "byteLength" : 55296,
            "byteOffset" : 480108,
            "target" : 34962
        },
        {
            "buffer" : 0,
            "byteLength" : 36864,
            "byteOffset" : 535404,
            "target" : 34962
        },
        {
            "buffer" : 0,
            "byteLength" : 55296,
            "byteOffset" : 572268,
            "target" : 34962
        },
        {
            "buffer" : 0,
            "byteLength" : 13824,
            "byteOffset" : 627564,
            "target" : 34963
        },
        {
            "buffer" : 0,
            "byteLength" : 165888,
            "byteOffset" : 641388,
            "target" : 34962
        },
        {
            "buffer" : 0,
            "byteLength" : 110592,
            "byteOffset" : 807276,
            "target" : 34962
        },
        {
            "buffer" : 0,
            "byteLength" : 165888,
            "byteOffset" : 917868,
            "target" : 34962
        },
        {
            "buffer" : 0,
            "byteLength" : 41472,
            "byteOffset" : 1083756,
            "target" : 34963
        },
        {
            "buffer" : 0,
            "byteLength" : 1512,
            "byteOffset" : 1125228,
            "target" : 34962
        },
        {
            "buffer" : 0,
            "byteLength" : 1008,
            "byteOffset" : 1126740,
            "target" : 34962
        },
        {
            "buffer" : 0,
            "byteLength" : 1512,
            "byteOffset" : 1127748,
            "target" : 34962
        },
        {
            "buffer" : 0,
            "byteLength" : 432,
            "byteOffset" : 1129260,
            "target" : 34963
        }
    ],
    "buffers" : [
        {
            "byteLength" : 1129692,
            "uri" : "track3-9.bin"
        }
    ]
}
