{
    "asset" : {
        "generator" : "Khronos glTF Blender I/O v3.3.27",
        "version" : "2.0"
    },
    "scene" : 0,
    "scenes" : [
        {
            "name" : "Track3",
            "nodes" : [
                0,
                1,
                2,
                3,
                4,
                5,
                6
            ]
        }
    ],
    "nodes" : [
        {
            "mesh" : 0,
            "name" : "OrangeTrack"
        },
        {
            "mesh" : 1,
            "name" : "BlueTrack"
        },
        {
            "mesh" : 2,
            "name" : "Blocks"
        },
        {
            "mesh" : 3,
            "name" : "Globe"
        },
        {
            "mesh" : 4,
            "name" : "Rings2"
        },
        {
            "mesh" : 5,
            "name" : "Rings6"
        },
        {
            "mesh" : 6,
            "name" : "Screen"
        }
    ],
    "materials" : [
        {
            "doubleSided" : true,
            "name" : "orangeTrack",
            "pbrMetallicRoughness" : {
                "baseColorTexture" : {
                    "index" : 0
                },
                "metallicFactor" : 0.5,
                "roughnessFactor" : 0.5
            }
        },
        {
            "doubleSided" : true,
            "name" : "bluetrack",
            "pbrMetallicRoughness" : {
                "baseColorTexture" : {
                    "index" : 1
                },
                "metallicFactor" : 0,
                "roughnessFactor" : 0.5
            }
        },
        {
            "doubleSided" : true,
            "name" : "blocks",
            "pbrMetallicRoughness" : {
                "baseColorTexture" : {
                    "index" : 2
                },
                "metallicFactor" : 0.5,
                "roughnessFactor" : 0.5
            }
        },
        {
            "doubleSided" : true,
            "name" : "globe",
            "pbrMetallicRoughness" : {
                "baseColorTexture" : {
                    "index" : 3
                },
                "metallicFactor" : 0,
                "roughnessFactor" : 0.5
            }
        },
        {
            "doubleSided" : true,
            "name" : "rings",
            "pbrMetallicRoughness" : {
                "baseColorTexture" : {
                    "index" : 4
                },
                "metallicFactor" : 0.800000011920929,
                "roughnessFactor" : 0
            }
        },
        {
            "doubleSided" : true,
            "name" : "screen",
            "pbrMetallicRoughness" : {
                "baseColorTexture" : {
                    "index" : 5
                },
                "metallicFactor" : 0.5,
                "roughnessFactor" : 0.5
            }
        }
    ],
    "meshes" : [
        {
            "name" : "OrangeTrack",
            "primitives" : [
                {
                    "attributes" : {
                        "POSITION" : 0,
                        "NORMAL" : 1,
                        "TEXCOORD_0" : 2
                    },
                    "indices" : 3,
                    "material" : 0
                }
            ]
        },
        {
            "name" : "BlueTrack",
            "primitives" : [
                {
                    "attributes" : {
                        "POSITION" : 4,
                        "NORMAL" : 5,
                        "TEXCOORD_0" : 6
                    },
                    "indices" : 7,
                    "material" : 1
                }
            ]
        },
        {
            "name" : "Blocks",
            "primitives" : [
                {
                    "attributes" : {
                        "POSITION" : 8,
                        "NORMAL" : 9,
                        "TEXCOORD_0" : 10
                    },
                    "indices" : 11,
                    "material" : 2
                }
            ]
        },
        {
            "name" : "Globe",
            "primitives" : [
                {
                    "attributes" : {
                        "POSITION" : 12,
                        "NORMAL" : 13,
                        "TEXCOORD_0" : 14
                    },
                    "indices" : 15,
                    "material" : 3
                }
            ]
        },
        {
            "name" : "Rings2",
            "primitives" : [
                {
                    "attributes" : {
                        "POSITION" : 16,
                        "NORMAL" : 17,
                        "TEXCOORD_0" : 18
                    },
                    "indices" : 19,
                    "material" : 4
                }
            ]
        },
        {
            "name" : "Rings6",
            "primitives" : [
                {
                    "attributes" : {
                        "POSITION" : 20,
                        "NORMAL" : 21,
                        "TEXCOORD_0" : 22
                    },
                    "indices" : 23,
                    "material" : 4
                }
            ]
        },
        {
            "name" : "Screen",
            "primitives" : [
                {
                    "attributes" : {
                        "POSITION" : 24,
                        "NORMAL" : 25,
                        "TEXCOORD_0" : 26
                    },
                    "indices" : 27,
                    "material" : 5
                }
            ]
        }
    ],
    "textures" : [
        {
            "sampler" : 0,
            "source" : 0
        },
        {
            "sampler" : 0,
            "source" : 1
        },
        {
            "sampler" : 0,
            "source" : 2
        },
        {
            "sampler" : 0,
            "source" : 3
        },
        {
            "sampler" : 0,
            "source" : 1
        },
        {
            "sampler" : 0,
            "source" : 4
        }
    ],
    "images" : [
        {
            "bufferView" : 4,
            "mimeType" : "image/png",
            "name" : "orangeTrack"
        },
        {
            "bufferView" : 9,
            "mimeType" : "image/png",
            "name" : "blueTrack"
        },
        {
            "bufferView" : 14,
            "mimeType" : "image/png",
            "name" : "blocks"
        },
        {
            "bufferView" : 19,
            "mimeType" : "image/png",
            "name" : "globe"
        },
        {
            "bufferView" : 32,
            "mimeType" : "image/png",
            "name" : "screen"
        }
    ],
    "accessors" : [
        {
            "bufferView" : 0,
            "componentType" : 5126,
            "count" : 2738,
            "max" : [
                11.22799015045166,
                242.27890014648438,
                715.8829345703125
            ],
            "min" : [
                -1074.3994140625,
                -208.90878295898438,
                -714.8081665039062
            ],
            "type" : "VEC3"
        },
        {
            "bufferView" : 1,
            "componentType" : 5126,
            "count" : 2738,
            "type" : "VEC3"
        },
        {
            "bufferView" : 2,
            "componentType" : 5126,
            "count" : 2738,
            "type" : "VEC2"
        },
        {
            "bufferView" : 3,
            "componentType" : 5123,
            "count" : 4248,
            "type" : "SCALAR"
        },
        {
            "bufferView" : 5,
            "componentType" : 5126,
            "count" : 2782,
            "max" : [
                42.680816650390625,
                242.27890014648438,
                666.5948486328125
            ],
            "min" : [
                -1105.85205078125,
                -209.69705200195312,
                -665.5201416015625
            ],
            "type" : "VEC3"
        },
        {
            "bufferView" : 6,
            "componentType" : 5126,
            "count" : 2782,
            "type" : "VEC3"
        },
        {
            "bufferView" : 7,
            "componentType" : 5126,
            "count" : 2782,
            "type" : "VEC2"
        },
        {
            "bufferView" : 8,
            "componentType" : 5123,
            "count" : 4248,
            "type" : "SCALAR"
        },
        {
            "bufferView" : 10,
            "componentType" : 5126,
            "count" : 4176,
            "max" : [
                -217.83493041992188,
                -52.29349136352539,
                232.3782196044922
            ],
            "min" : [
                -738.1907958984375,
                -244.25961303710938,
                -111.23641204833984
            ],
            "type" : "VEC3"
        },
        {
            "bufferView" : 11,
            "componentType" : 5126,
            "count" : 4176,
            "type" : "VEC3"
        },
        {
            "bufferView" : 12,
            "componentType" : 5126,
            "count" : 4176,
            "type" : "VEC2"
        },
        {
            "bufferView" : 13,
            "componentType" : 5123,
            "count" : 6930,
            "type" : "SCALAR"
        },
        {
            "bufferView" : 15,
            "componentType" : 5126,
            "count" : 2464,
            "max" : [
                -621.4615478515625,
                106.21685028076172,
                622.8389892578125
            ],
            "min" : [
                -806.5348510742188,
                -127.82902526855469,
                437.7658386230469
            ],
            "type" : "VEC3"
        },
        {
            "bufferView" : 16,
            "componentType" : 5126,
            "count" : 2464,
            "type" : "VEC3"
        },
        {
            "bufferView" : 17,
            "componentType" : 5126,
            "count" : 2464,
            "type" : "VEC2"
        },
        {
            "bufferView" : 18,
            "componentType" : 5123,
            "count" : 3648,
            "type" : "SCALAR"
        },
        {
            "bufferView" : 20,
            "componentType" : 5126,
            "count" : 4608,
            "max" : [
                -767.3021850585938,
                179.00848388671875,
                -357.98828125
            ],
            "min" : [
                -932.4905395507812,
                23.881507873535156,
                -514.4561767578125
            ],
            "type" : "VEC3"
        },
        {
            "bufferView" : 21,
            "componentType" : 5126,
            "count" : 4608,
            "type" : "VEC3"
        },
        {
            "bufferView" : 22,
            "componentType" : 5126,
            "count" : 4608,
            "type" : "VEC2"
        },
        {
            "bufferView" : 23,
            "componentType" : 5123,
            "count" : 6912,
            "type" : "SCALAR"
        },
        {
            "bufferView" : 24,
            "componentType" : 5126,
            "count" : 13824,
            "max" : [
                71.4395523071289,
                70.51807403564453,
                203.19744873046875
            ],
            "min" : [
                -67.35836791992188,
                -68.27983856201172,
                -148.74423217773438
            ],
            "type" : "VEC3"
        },
        {
            "bufferView" : 25,
            "componentType" : 5126,
            "count" : 13824,
            "type" : "VEC3"
        },
        {
            "bufferView" : 26,
            "componentType" : 5126,
            "count" : 13824,
            "type" : "VEC2"
        },
        {
            "bufferView" : 27,
            "componentType" : 5123,
            "count" : 20736,
            "type" : "SCALAR"
        },
        {
            "bufferView" : 28,
            "componentType" : 5126,
            "count" : 126,
            "max" : [
                -279.8438415527344,
                -45.836917877197266,
                -301.7812805175781
            ],
            "min" : [
                -487.050048828125,
                -208.19871520996094,
                -375.4981689453125
            ],
            "type" : "VEC3"
        },
        {
            "bufferView" : 29,
            "componentType" : 5126,
            "count" : 126,
            "type" : "VEC3"
        },
        {
            "bufferView" : 30,
            "componentType" : 5126,
            "count" : 126,
            "type" : "VEC2"
        },
        {
            "bufferView" : 31,
            "componentType" : 5123,
            "count" : 216,
            "type" : "SCALAR"
        }
    ],
    "bufferViews" : [
        {
            "buffer" : 0,
            "byteLength" : 32856,
            "byteOffset" : 0,
            "target" : 34962
        },
        {
            "buffer" : 0,
            "byteLength" : 32856,
            "byteOffset" : 32856,
            "target" : 34962
        },
        {
            "buffer" : 0,
            "byteLength" : 21904,
            "byteOffset" : 65712,
            "target" : 34962
        },
        {
            "buffer" : 0,
            "byteLength" : 8496,
            "byteOffset" : 87616,
            "target" : 34963
        },
        {
            "buffer" : 0,
            "byteLength" : 5778,
            "byteOffset" : 96112
        },
        {
            "buffer" : 0,
            "byteLength" : 33384,
            "byteOffset" : 101892,
            "target" : 34962
        },
        {
            "buffer" : 0,
            "byteLength" : 33384,
            "byteOffset" : 135276,
            "target" : 34962
        },
        {
            "buffer" : 0,
            "byteLength" : 22256,
            "byteOffset" : 168660,
            "target" : 34962
        },
        {
            "buffer" : 0,
            "byteLength" : 8496,
            "byteOffset" : 190916,
            "target" : 34963
        },
        {
            "buffer" : 0,
            "byteLength" : 5778,
            "byteOffset" : 199412
        },
        {
            "buffer" : 0,
            "byteLength" : 50112,
            "byteOffset" : 205192,
            "target" : 34962
        },
        {
            "buffer" : 0,
            "byteLength" : 50112,
            "byteOffset" : 255304,
            "target" : 34962
        },
        {
            "buffer" : 0,
            "byteLength" : 33408,
            "byteOffset" : 305416,
            "target" : 34962
        },
        {
            "buffer" : 0,
            "byteLength" : 13860,
            "byteOffset" : 338824,
            "target" : 34963
        },
        {
            "buffer" : 0,
            "byteLength" : 28078,
            "byteOffset" : 352684
        },
        {
            "buffer" : 0,
            "byteLength" : 29568,
            "byteOffset" : 380764,
            "target" : 34962
        },
        {
            "buffer" : 0,
            "byteLength" : 29568,
            "byteOffset" : 410332,
            "target" : 34962
        },
        {
            "buffer" : 0,
            "byteLength" : 19712,
            "byteOffset" : 439900,
            "target" : 34962
        },
        {
            "buffer" : 0,
            "byteLength" : 7296,
            "byteOffset" : 459612,
            "target" : 34963
        },
        {
            "buffer" : 0,
            "byteLength" : 7061,
            "byteOffset" : 466908
        },
        {
            "buffer" : 0,
            "byteLength" : 55296,
            "byteOffset" : 473972,
            "target" : 34962
        },
        {
            "buffer" : 0,
            "byteLength" : 55296,
            "byteOffset" : 529268,
            "target" : 34962
        },
        {
            "buffer" : 0,
            "byteLength" : 36864,
            "byteOffset" : 584564,
            "target" : 34962
        },
        {
            "buffer" : 0,
            "byteLength" : 13824,
            "byteOffset" : 621428,
            "target" : 34963
        },
        {
            "buffer" : 0,
            "byteLength" : 165888,
            "byteOffset" : 635252,
            "target" : 34962
        },
        {
            "buffer" : 0,
            "byteLength" : 165888,
            "byteOffset" : 801140,
            "target" : 34962
        },
        {
            "buffer" : 0,
            "byteLength" : 110592,
            "byteOffset" : 967028,
            "target" : 34962
        },
        {
            "buffer" : 0,
            "byteLength" : 41472,
            "byteOffset" : 1077620,
            "target" : 34963
        },
        {
            "buffer" : 0,
            "byteLength" : 1512,
            "byteOffset" : 1119092,
            "target" : 34962
        },
        {
            "buffer" : 0,
            "byteLength" : 1512,
            "byteOffset" : 1120604,
            "target" : 34962
        },
        {
            "buffer" : 0,
            "byteLength" : 1008,
            "byteOffset" : 1122116,
            "target" : 34962
        },
        {
            "buffer" : 0,
            "byteLength" : 432,
            "byteOffset" : 1123124,
            "target" : 34963
        },
        {
            "buffer" : 0,
            "byteLength" : 26868,
            "byteOffset" : 1123556
        }
    ],
    "samplers" : [
        {
            "magFilter" : 9729,
            "minFilter" : 9987
        }
    ],
    "buffers" : [
        {
            "byteLength" : 1150424,
            "uri" : "data:application/octet-stream;base64,"
        }
    ]
}
