{
    "asset" : {
        "generator" : "Khronos glTF Blender I/O v3.4.50",
        "version" : "2.0"
    },
    "scene" : 0,
    "scenes" : [
        {
            "name" : "Kart",
            "nodes" : [
                0,
                1,
                2,
                3,
                4
            ]
        }
    ],
    "nodes" : [
        {
            "mesh" : 0,
            "name" : "BodyMain",
            "rotation" : [
                0,
                -1,
                0,
                4.371138828673793e-08
            ]
        },
        {
            "mesh" : 1,
            "name" : "Wheels",
            "rotation" : [
                0,
                -1,
                0,
                4.371138828673793e-08
            ]
        },
        {
            "mesh" : 2,
            "name" : "Muffler",
            "rotation" : [
                0,
                -1,
                0,
                4.371138828673793e-08
            ]
        },
        {
            "mesh" : 3,
            "name" : "BodyTop",
            "rotation" : [
                0,
                -1,
                0,
                4.371138828673793e-08
            ]
        },
        {
            "mesh" : 4,
            "name" : "BodyUnderside",
            "rotation" : [
                0,
                -1,
                0,
                4.371138828673793e-08
            ]
        }
    ],
    "meshes" : [
        {
            "name" : "BodyMain",
            "primitives" : [
                {
                    "attributes" : {
                        "POSITION" : 0,
                        "TEXCOORD_0" : 1,
                        "NORMAL" : 2
                    },
                    "indices" : 3
                }
            ]
        },
        {
            "name" : "Wheels",
            "primitives" : [
                {
                    "attributes" : {
                        "POSITION" : 4,
                        "TEXCOORD_0" : 5,
                        "NORMAL" : 6
                    },
                    "indices" : 7
                }
            ]
        },
        {
            "name" : "Muffler",
            "primitives" : [
                {
                    "attributes" : {
                        "POSITION" : 8,
                        "TEXCOORD_0" : 9,
                        "NORMAL" : 10
                    },
                    "indices" : 11
                }
            ]
        },
        {
            "name" : "BodyTop",
            "primitives" : [
                {
                    "attributes" : {
                        "POSITION" : 12,
                        "TEXCOORD_0" : 13,
                        "NORMAL" : 14
                    },
                    "indices" : 15
                }
            ]
        },
        {
            "name" : "BodyUnderside",
            "primitives" : [
                {
                    "attributes" : {
                        "POSITION" : 16,
                        "TEXCOORD_0" : 17,
                        "NORMAL" : 18
                    },
                    "indices" : 19
                }
            ]
        }
    ],
    "accessors" : [
        {
            "bufferView" : 0,
            "componentType" : 5126,
            "count" : 3640,
            "max" : [
                2.992866039276123,
                3.3636322021484375,
                4.505581855773926
            ],
            "min" : [
                -2.992866277694702,
                0.3550323247909546,
                -3.971454620361328
            ],
            "type" : "VEC3"
        },
        {
            "bufferView" : 1,
            "componentType" : 5126,
            "count" : 3640,
            "type" : "VEC2"
        },
        {
            "bufferView" : 2,
            "componentType" : 5126,
            "count" : 3640,
            "type" : "VEC3"
        },
        {
            "bufferView" : 3,
            "componentType" : 5123,
            "count" : 20322,
            "type" : "SCALAR"
        },
        {
            "bufferView" : 4,
            "componentType" : 5126,
            "count" : 20768,
            "max" : [
                3.5817713737487793,
                2.1646547317504883,
                2.704005718231201
            ],
            "min" : [
                -3.5817713737487793,
                0.006678342819213867,
                -3.424955129623413
            ],
            "type" : "VEC3"
        },
        {
            "bufferView" : 5,
            "componentType" : 5126,
            "count" : 20768,
            "type" : "VEC2"
        },
        {
            "bufferView" : 6,
            "componentType" : 5126,
            "count" : 20768,
            "type" : "VEC3"
        },
        {
            "bufferView" : 7,
            "componentType" : 5123,
            "count" : 116736,
            "type" : "SCALAR"
        },
        {
            "bufferView" : 8,
            "componentType" : 5126,
            "count" : 3882,
            "max" : [
                2.546834945678711,
                2.7526845932006836,
                -2.126946449279785
            ],
            "min" : [
                -2.54683518409729,
                2.3119797706604004,
                -3.760770797729492
            ],
            "type" : "VEC3"
        },
        {
            "bufferView" : 9,
            "componentType" : 5126,
            "count" : 3882,
            "type" : "VEC2"
        },
        {
            "bufferView" : 10,
            "componentType" : 5126,
            "count" : 3882,
            "type" : "VEC3"
        },
        {
            "bufferView" : 11,
            "componentType" : 5123,
            "count" : 20160,
            "type" : "SCALAR"
        },
        {
            "bufferView" : 12,
            "componentType" : 5126,
            "count" : 2053,
            "max" : [
                2.587752342224121,
                3.476372241973877,
                2.683995246887207
            ],
            "min" : [
                -2.587752342224121,
                0.8413558602333069,
                -3.4437475204467773
            ],
            "type" : "VEC3"
        },
        {
            "bufferView" : 13,
            "componentType" : 5126,
            "count" : 2053,
            "type" : "VEC2"
        },
        {
            "bufferView" : 14,
            "componentType" : 5126,
            "count" : 2053,
            "type" : "VEC3"
        },
        {
            "bufferView" : 15,
            "componentType" : 5123,
            "count" : 11724,
            "type" : "SCALAR"
        },
        {
            "bufferView" : 16,
            "componentType" : 5126,
            "count" : 929,
            "max" : [
                2.9770162105560303,
                0.841751754283905,
                4.517483234405518
            ],
            "min" : [
                -2.977015972137451,
                0.3550323247909546,
                -3.9853949546813965
            ],
            "type" : "VEC3"
        },
        {
            "bufferView" : 17,
            "componentType" : 5126,
            "count" : 929,
            "type" : "VEC2"
        },
        {
            "bufferView" : 18,
            "componentType" : 5126,
            "count" : 929,
            "type" : "VEC3"
        },
        {
            "bufferView" : 19,
            "componentType" : 5123,
            "count" : 4764,
            "type" : "SCALAR"
        }
    ],
    "bufferViews" : [
        {
            "buffer" : 0,
            "byteLength" : 43680,
            "byteOffset" : 0,
            "target" : 34962
        },
        {
            "buffer" : 0,
            "byteLength" : 29120,
            "byteOffset" : 43680,
            "target" : 34962
        },
        {
            "buffer" : 0,
            "byteLength" : 43680,
            "byteOffset" : 72800,
            "target" : 34962
        },
        {
            "buffer" : 0,
            "byteLength" : 40644,
            "byteOffset" : 116480,
            "target" : 34963
        },
        {
            "buffer" : 0,
            "byteLength" : 249216,
            "byteOffset" : 157124,
            "target" : 34962
        },
        {
            "buffer" : 0,
            "byteLength" : 166144,
            "byteOffset" : 406340,
            "target" : 34962
        },
        {
            "buffer" : 0,
            "byteLength" : 249216,
            "byteOffset" : 572484,
            "target" : 34962
        },
        {
            "buffer" : 0,
            "byteLength" : 233472,
            "byteOffset" : 821700,
            "target" : 34963
        },
        {
            "buffer" : 0,
            "byteLength" : 46584,
            "byteOffset" : 1055172,
            "target" : 34962
        },
        {
            "buffer" : 0,
            "byteLength" : 31056,
            "byteOffset" : 1101756,
            "target" : 34962
        },
        {
            "buffer" : 0,
            "byteLength" : 46584,
            "byteOffset" : 1132812,
            "target" : 34962
        },
        {
            "buffer" : 0,
            "byteLength" : 40320,
            "byteOffset" : 1179396,
            "target" : 34963
        },
        {
            "buffer" : 0,
            "byteLength" : 24636,
            "byteOffset" : 1219716,
            "target" : 34962
        },
        {
            "buffer" : 0,
            "byteLength" : 16424,
            "byteOffset" : 1244352,
            "target" : 34962
        },
        {
            "buffer" : 0,
            "byteLength" : 24636,
            "byteOffset" : 1260776,
            "target" : 34962
        },
        {
            "buffer" : 0,
            "byteLength" : 23448,
            "byteOffset" : 1285412,
            "target" : 34963
        },
        {
            "buffer" : 0,
            "byteLength" : 11148,
            "byteOffset" : 1308860,
            "target" : 34962
        },
        {
            "buffer" : 0,
            "byteLength" : 7432,
            "byteOffset" : 1320008,
            "target" : 34962
        },
        {
            "buffer" : 0,
            "byteLength" : 11148,
            "byteOffset" : 1327440,
            "target" : 34962
        },
        {
            "buffer" : 0,
            "byteLength" : 9528,
            "byteOffset" : 1338588,
            "target" : 34963
        }
    ],
    "buffers" : [
        {
            "byteLength" : 1348116,
            "uri" : "kart2-5.bin"
        }
    ]
}
