{
    "asset" : {
        "generator" : "Khronos glTF Blender I/O v3.4.50",
        "version" : "2.0"
    },
    "scene" : 0,
    "scenes" : [
        {
            "name" : "Scene",
            "nodes" : [
                0
            ]
        }
    ],
    "nodes" : [
        {
            "mesh" : 0,
            "name" : "double",
            "rotation" : [
                0.70710688829422,
                0,
                0,
                0.7071066498756409
            ]
        }
    ],
    "meshes" : [
        {
            "name" : "double",
            "primitives" : [
                {
                    "attributes" : {
                        "POSITION" : 0,
                        "TEXCOORD_0" : 1,
                        "NORMAL" : 2
                    },
                    "indices" : 3
                }
            ]
        }
    ],
    "accessors" : [
        {
            "bufferView" : 0,
            "componentType" : 5126,
            "count" : 3199,
            "max" : [
                3,
                7,
                2
            ],
            "min" : [
                -3,
                1,
                -2
            ],
            "type" : "VEC3"
        },
        {
            "bufferView" : 1,
            "componentType" : 5126,
            "count" : 3199,
            "type" : "VEC2"
        },
        {
            "bufferView" : 2,
            "componentType" : 5126,
            "count" : 3199,
            "type" : "VEC3"
        },
        {
            "bufferView" : 3,
            "componentType" : 5123,
            "count" : 3408,
            "type" : "SCALAR"
        }
    ],
    "bufferViews" : [
        {
            "buffer" : 0,
            "byteLength" : 38388,
            "byteOffset" : 0,
            "target" : 34962
        },
        {
            "buffer" : 0,
            "byteLength" : 25592,
            "byteOffset" : 38388,
            "target" : 34962
        },
        {
            "buffer" : 0,
            "byteLength" : 38388,
            "byteOffset" : 63980,
            "target" : 34962
        },
        {
            "buffer" : 0,
            "byteLength" : 6816,
            "byteOffset" : 102368,
            "target" : 34963
        }
    ],
    "buffers" : [
        {
            "byteLength" : 109184,
            "uri" : "aimBox.bin"
        }
    ]
}
