{
    "asset" : {
        "generator" : "Khronos glTF Blender I/O v3.4.50",
        "version" : "2.0"
    },
    "scene" : 0,
    "scenes" : [
        {
            "name" : "Scene",
            "nodes" : [
                0
            ]
        }
    ],
    "nodes" : [
        {
            "mesh" : 0,
            "name" : "Buckshot",
            "rotation" : [
                0.4999999403953552,
                0.5,
                -0.4999999403953552,
                0.5000000596046448
            ],
            "scale" : [
                0.2357102781534195,
                0.2357102781534195,
                0.2357102781534195
            ],
            "translation" : [
                -1.2971590757369995,
                1.6370717287063599,
                1.7281129360198975
            ]
        }
    ],
    "meshes" : [
        {
            "name" : "Cylinder.002",
            "primitives" : [
                {
                    "attributes" : {
                        "POSITION" : 0,
                        "TEXCOORD_0" : 1,
                        "NORMAL" : 2
                    },
                    "indices" : 3
                }
            ]
        }
    ],
    "accessors" : [
        {
            "bufferView" : 0,
            "componentType" : 5126,
            "count" : 999,
            "max" : [
                6.716578483581543,
                21.782352447509766,
                15.465618133544922
            ],
            "min" : [
                -14.770174980163574,
                -10.73468017578125,
                -5.263383865356445
            ],
            "type" : "VEC3"
        },
        {
            "bufferView" : 1,
            "componentType" : 5126,
            "count" : 999,
            "type" : "VEC2"
        },
        {
            "bufferView" : 2,
            "componentType" : 5126,
            "count" : 999,
            "type" : "VEC3"
        },
        {
            "bufferView" : 3,
            "componentType" : 5123,
            "count" : 4680,
            "type" : "SCALAR"
        }
    ],
    "bufferViews" : [
        {
            "buffer" : 0,
            "byteLength" : 11988,
            "byteOffset" : 0,
            "target" : 34962
        },
        {
            "buffer" : 0,
            "byteLength" : 7992,
            "byteOffset" : 11988,
            "target" : 34962
        },
        {
            "buffer" : 0,
            "byteLength" : 11988,
            "byteOffset" : 19980,
            "target" : 34962
        },
        {
            "buffer" : 0,
            "byteLength" : 9360,
            "byteOffset" : 31968,
            "target" : 34963
        }
    ],
    "buffers" : [
        {
            "byteLength" : 41328,
            "uri" : "buckshot.bin"
        }
    ]
}
