{
    "asset" : {
        "generator" : "Khronos glTF Blender I/O v3.4.50",
        "version" : "2.0"
    },
    "scene" : 0,
    "scenes" : [
        {
            "name" : "Scene",
            "nodes" : [
                0
            ]
        }
    ],
    "nodes" : [
        {
            "mesh" : 0,
            "name" : "buckshot",
            "rotation" : [
                0.70710688829422,
                0,
                0,
                0.7071066498756409
            ]
        }
    ],
    "meshes" : [
        {
            "name" : "buckshot",
            "primitives" : [
                {
                    "attributes" : {
                        "POSITION" : 0,
                        "TEXCOORD_0" : 1,
                        "NORMAL" : 2
                    },
                    "indices" : 3
                }
            ]
        }
    ],
    "accessors" : [
        {
            "bufferView" : 0,
            "componentType" : 5126,
            "count" : 12906,
            "max" : [
                3.782133102416992,
                6.154561996459961,
                1.9914380311965942
            ],
            "min" : [
                -3.7724010944366455,
                1.1999789476394653,
                -2.85221004486084
            ],
            "type" : "VEC3"
        },
        {
            "bufferView" : 1,
            "componentType" : 5126,
            "count" : 12906,
            "type" : "VEC2"
        },
        {
            "bufferView" : 2,
            "componentType" : 5126,
            "count" : 12906,
            "type" : "VEC3"
        },
        {
            "bufferView" : 3,
            "componentType" : 5123,
            "count" : 72576,
            "type" : "SCALAR"
        }
    ],
    "bufferViews" : [
        {
            "buffer" : 0,
            "byteLength" : 154872,
            "byteOffset" : 0,
            "target" : 34962
        },
        {
            "buffer" : 0,
            "byteLength" : 103248,
            "byteOffset" : 154872,
            "target" : 34962
        },
        {
            "buffer" : 0,
            "byteLength" : 154872,
            "byteOffset" : 258120,
            "target" : 34962
        },
        {
            "buffer" : 0,
            "byteLength" : 145152,
            "byteOffset" : 412992,
            "target" : 34963
        }
    ],
    "buffers" : [
        {
            "byteLength" : 558144,
            "uri" : "buckshot.bin"
        }
    ]
}
