{
    "asset" : {
        "generator" : "Khronos glTF Blender I/O v3.4.50",
        "version" : "2.0"
    },
    "scene" : 0,
    "scenes" : [
        {
            "name" : "Scene",
            "nodes" : [
                0
            ]
        }
    ],
    "nodes" : [
        {
            "mesh" : 0,
            "name" : "Damage",
            "rotation" : [
                0.5,
                -0.5,
                0.5,
                0.5000001192092896
            ],
            "scale" : [
                0.699999988079071,
                0.699999988079071,
                0.699999988079071
            ],
            "translation" : [
                0,
                0,
                4
            ]
        }
    ],
    "meshes" : [
        {
            "name" : "Cylinder.003",
            "primitives" : [
                {
                    "attributes" : {
                        "POSITION" : 0,
                        "TEXCOORD_0" : 1,
                        "NORMAL" : 2
                    },
                    "indices" : 3
                }
            ]
        }
    ],
    "accessors" : [
        {
            "bufferView" : 0,
            "componentType" : 5126,
            "count" : 690,
            "max" : [
                7.115841388702393,
                8.54285717010498,
                1.7500001192092896
            ],
            "min" : [
                -7.1415557861328125,
                -6.888702392578125,
                -1.7500001192092896
            ],
            "type" : "VEC3"
        },
        {
            "bufferView" : 1,
            "componentType" : 5126,
            "count" : 690,
            "type" : "VEC2"
        },
        {
            "bufferView" : 2,
            "componentType" : 5126,
            "count" : 690,
            "type" : "VEC3"
        },
        {
            "bufferView" : 3,
            "componentType" : 5123,
            "count" : 708,
            "type" : "SCALAR"
        }
    ],
    "bufferViews" : [
        {
            "buffer" : 0,
            "byteLength" : 8280,
            "byteOffset" : 0,
            "target" : 34962
        },
        {
            "buffer" : 0,
            "byteLength" : 5520,
            "byteOffset" : 8280,
            "target" : 34962
        },
        {
            "buffer" : 0,
            "byteLength" : 8280,
            "byteOffset" : 13800,
            "target" : 34962
        },
        {
            "buffer" : 0,
            "byteLength" : 1416,
            "byteOffset" : 22080,
            "target" : 34963
        }
    ],
    "buffers" : [
        {
            "byteLength" : 23496,
            "uri" : "damage.bin"
        }
    ]
}
