# Blender 3.4.1
# www.blender.org
o Cylinder
v -1.377327 -0.404231 -1.668380
v -1.503956 -0.558922 -2.283908
v 0.622673 -0.404231 -1.668381
v 0.134674 -0.558922 -2.283908
v -1.119500 -0.912596 -0.639267
v -1.140099 -1.144238 -0.786205
v 0.880500 -0.912596 -0.639267
v 0.499681 -1.144238 -0.786205
v -1.131546 -1.729546 0.062955
v -1.095719 -2.510071 0.089419
v 0.868454 -1.729546 0.062955
v 0.551409 -2.510071 0.089419
v -1.002276 -0.881793 0.771358
v -0.888655 -1.394826 1.221645
v 0.997724 -0.881793 0.771358
v 0.762620 -1.394826 1.221645
v -1.031725 -0.277219 1.030781
v -0.931176 -0.318498 1.297172
v 0.968275 -0.277219 1.030781
v 0.720828 -0.318498 1.297172
v -1.229765 0.523627 1.605800
v -1.338962 0.806957 2.471171
v 0.770235 0.523627 1.605800
v 0.312418 0.806957 2.471171
v -0.982905 0.844322 0.659057
v -0.875648 1.115319 0.836397
v 1.017095 0.844322 0.659057
v 0.775220 1.115319 0.836397
v -1.109892 1.498052 -0.044913
v -1.187160 2.406673 -0.051618
v 0.890108 1.498052 -0.044913
v 0.461615 2.406673 -0.051618
v -0.997373 0.893033 -0.574658
v -0.932518 1.171160 -0.800503
v 1.002627 0.893032 -0.574658
v 0.713092 1.171159 -0.800503
v -0.939462 0.322025 -0.871334
v -1.166640 0.580552 -1.746160
v 1.060539 0.322025 -0.871333
v 0.474373 0.580551 -1.746160
v -0.826529 0.216659 -0.670974
v -0.827407 0.157532 -0.673600
v -0.820542 0.212486 -1.023074
v -0.823094 0.151693 -1.021327
v 1.171671 0.156591 -0.675268
v 1.169288 0.220562 -0.678395
v 0.816342 0.151634 -1.021433
v 0.819070 0.212516 -1.023133
v -0.871657 -0.441253 -0.713893
v -0.874968 -0.496904 -0.658202
v -0.845347 -0.586685 -0.865238
v -0.850509 -0.642003 -0.806794
v 1.124225 -0.498274 -0.658140
v 1.126268 -0.441101 -0.717809
v 0.787917 -0.642340 -0.806781
v 0.793075 -0.586682 -0.865402
v -0.910770 -0.755172 -0.269022
v -0.894451 -0.786767 -0.200751
v -0.855050 -0.971214 -0.358809
v -0.832022 -1.009005 -0.294207
v 1.104280 -0.791812 -0.199340
v 1.091062 -0.753790 -0.265772
v 0.811812 -1.008874 -0.294241
v 0.787893 -0.971414 -0.359303
v -0.919700 -0.608493 0.270424
v -0.917681 -0.581278 0.331158
v -0.796396 -0.891284 0.388897
v -0.791613 -0.865703 0.451530
v 1.081474 -0.584278 0.335551
v 1.080163 -0.609214 0.270291
v 0.858141 -0.865699 0.451524
v 0.853145 -0.891384 0.388878
v -0.963384 -0.568205 0.613277
v -0.965764 -0.490562 0.639022
v -0.829940 -0.638653 0.835025
v -0.836646 -0.560505 0.858470
v 1.034506 -0.491436 0.637417
v 1.036365 -0.570230 0.614297
v 0.815310 -0.560437 0.858592
v 0.821997 -0.638636 0.835016
v -0.923779 0.001386 0.774986
v -0.926248 0.072451 0.787076
v -0.840371 -0.043923 1.040982
v -0.844014 0.028575 1.052094
v 1.073143 0.073357 0.788720
v 1.075205 -0.001236 0.777393
v 0.807618 0.028648 1.052228
v 0.811348 -0.043967 1.041023
v -0.951173 0.403430 0.695143
v -0.940066 0.454959 0.640407
v -0.843381 0.595357 0.866441
v -0.831288 0.647304 0.812106
v 1.059831 0.455889 0.640452
v 1.048667 0.403500 0.695668
v 0.819963 0.647242 0.812103
v 0.807843 0.595388 0.866676
v -0.802523 0.621296 0.183782
v -0.803511 0.653482 0.121645
v -0.720234 0.862695 0.308406
v -0.722301 0.895299 0.242918
v 1.194917 0.657814 0.120790
v 1.195356 0.623919 0.189371
v 0.927482 0.895433 0.242892
v 0.929702 0.862731 0.308481
v -0.937482 0.773009 -0.171737
v -0.933970 0.739346 -0.238383
v -0.838383 1.009669 -0.298652
v -0.835853 0.975549 -0.363709
v 1.066431 0.738375 -0.236258
v 1.062623 0.772569 -0.171815
v 0.811424 0.975574 -0.363764
v 0.809138 1.009788 -0.298631
v -0.744054 0.338988 -0.474223
v -0.748583 0.289147 -0.518997
v -0.698326 0.529009 -0.674396
v -0.703330 0.475578 -0.721744
v 1.247694 0.289788 -0.525870
v 1.252542 0.346435 -0.475573
v 0.939615 0.475601 -0.721962
v 0.945016 0.529087 -0.674411
vn 0.6118 -0.5038 -0.6098
vn 0.5052 -0.3230 -0.8003
vn -0.0000 -0.2476 -0.9689
vn 0.6597 -0.2915 -0.6927
vn -0.0000 -0.8242 -0.5663
vn 0.7061 -0.6215 -0.3394
vn -0.0000 -0.8756 0.4830
vn 0.6183 -0.6243 0.4776
vn -0.0000 -0.8768 0.4809
vn 0.6599 -0.5374 0.5251
vn -0.0000 -0.0518 0.9987
vn 0.6030 0.0162 0.7976
vn -0.0000 0.1913 0.9815
vn 0.7094 0.3391 0.6179
vn -0.0000 0.9127 0.4087
vn 0.5810 0.7836 0.2201
vn -0.0000 0.9948 0.1019
vn 0.6503 0.7269 -0.2209
vn -0.0000 -0.0410 -0.9992
vn -0.7433 0.4133 -0.5260
vn -0.0000 -0.8912 -0.4536
vn -0.5531 0.6696 0.4957
vn 0.9565 0.0038 -0.2916
vn -0.0000 -0.9998 -0.0196
vn -0.7957 0.0309 -0.6050
vn -0.6885 -0.6571 0.3068
vn 0.4883 -0.8229 -0.2906
vn -0.0000 -0.9269 0.3752
vn -0.7022 -0.5180 -0.4885
vn -0.7212 -0.3242 0.6122
vn 0.5789 -0.8151 0.0202
vn -0.0000 -0.1819 0.9833
vn -0.7325 -0.6421 0.2263
vn -0.6881 -0.0070 0.7255
vn 0.6779 -0.2557 0.6893
vn -0.0000 0.4552 0.8904
vn -0.7205 -0.6847 0.1102
vn -0.7233 0.3581 0.5905
vn 0.6442 0.2791 0.7121
vn -0.0000 0.6822 0.7312
vn -0.7758 -0.1151 0.6204
vn -0.7277 0.5809 0.3647
vn 0.6196 0.3869 0.6829
vn -0.0000 0.9914 -0.1307
vn -0.7024 -0.1163 0.7022
vn -0.6969 0.6509 -0.3011
vn 0.6645 0.7398 0.1056
vn -0.0000 0.9021 -0.4316
vn -0.7642 0.5200 0.3817
vn -0.6697 0.5737 -0.4716
vn 0.6341 0.7642 -0.1179
vn -0.0000 0.1741 -0.9847
vn -0.6664 0.6170 0.4186
vn -0.7439 -0.0682 -0.6648
vn 0.6242 0.2763 -0.7308
vn -0.0000 -0.1927 -0.9813
vn -0.6664 -0.3701 -0.6472
vn 0.5901 0.1252 -0.7976
vn -0.6959 0.7178 -0.0207
vn 0.6140 0.4984 -0.6120
vn -0.0000 0.8715 -0.4905
vn -0.9997 0.0156 -0.0172
vn 0.7012 -0.0513 -0.7111
vn -0.9906 -0.0444 -0.1295
vn 0.5279 -0.6222 -0.5781
vn -0.9352 -0.3234 0.1442
vn 0.6180 -0.6230 -0.4795
vn -0.9241 -0.3238 0.2028
vn 0.8059 -0.5583 0.1971
vn -0.8657 -0.2105 0.4541
vn 0.7329 -0.1756 0.6573
vn -0.9545 -0.0915 0.2837
vn 0.7111 -0.0863 0.6977
vn -0.9131 0.3765 0.1567
vn 0.7254 0.4201 0.5453
vn -0.9568 0.2471 0.1532
vn 0.7087 0.6343 0.3089
vn -0.9384 0.2898 -0.1885
vn 0.7255 0.6248 -0.2887
vn -0.9846 0.1583 -0.0746
vn 0.6588 0.4672 -0.5897
vn -0.0001 -0.0287 -0.9996
vn -0.0001 -0.7252 -0.6885
vn 0.0001 -0.8666 -0.4990
vn -0.0000 -0.9253 0.3793
vn -0.0000 -0.2887 0.9574
vn -0.0000 -0.1525 0.9883
vn -0.0000 0.7249 0.6888
vn -0.0000 0.8949 0.4462
vn -0.0000 0.8853 -0.4650
vn -0.0000 0.6644 -0.7474
vn -0.6978 -0.7156 -0.0303
vn 0.6087 -0.5511 -0.5707
vn 0.4960 -0.3284 -0.8039
vn 0.5131 -0.3485 -0.7844
vn 0.6704 -0.6664 -0.3261
vn 0.6454 -0.6199 0.4463
vn 0.6304 -0.5571 0.5407
vn 0.5960 0.0271 0.8026
vn 0.6350 0.3647 0.6811
vn 0.5947 0.7677 0.2387
vn 0.6159 0.7421 -0.2644
vn -0.7411 0.4054 -0.5352
vn -0.8826 0.0337 0.4689
vn -0.8283 0.4989 0.2549
vn -0.9973 0.0728 0.0134
vn -0.8801 -0.0446 0.4727
vn -0.7609 0.0401 -0.6476
vn -0.4602 0.7586 0.4611
vn -0.9695 0.2073 -0.1304
vn -0.9860 0.0408 -0.1616
vn -0.5949 0.7407 -0.3121
vn -0.9977 0.0677 0.0004
vn -0.9062 0.2282 0.3560
vn -0.9867 0.0231 -0.1609
vn -0.9904 0.1090 -0.0854
vn -0.9079 -0.4188 -0.0202
vn -0.9888 0.1388 -0.0545
vn -0.9889 -0.0482 -0.1402
vn -0.9600 0.1632 -0.2274
vn -0.8951 -0.1858 -0.4053
vn -0.9126 -0.2706 0.3065
vn -0.9989 -0.0288 -0.0381
vn -0.9983 -0.0417 0.0410
vn -0.9511 -0.1471 -0.2716
vn -0.9443 -0.0887 -0.3168
vn -0.9248 -0.1649 -0.3429
vn -0.9999 -0.0141 0.0014
vn -0.2171 0.8654 0.4517
vn -0.9266 -0.1633 -0.3386
vn 0.8826 -0.0337 -0.4689
vn 0.8801 0.0446 -0.4727
vn 0.9967 -0.0732 -0.0360
vn 0.8874 0.0105 -0.4609
vn 0.9079 0.4188 0.0202
vn 0.9146 -0.0766 -0.3971
vn 0.8158 0.5295 -0.2327
vn 0.9807 -0.1699 0.0968
vn 0.8283 -0.4989 -0.2549
vn 0.9695 -0.2073 0.1304
vn 0.2293 -0.8244 -0.5175
vn 0.6181 -0.2546 0.7437
vn 0.9126 0.2706 -0.3065
vn 0.9443 0.0887 0.3168
vn 0.2009 -0.8777 -0.4351
vn 0.9979 0.0255 0.0597
vn 0.9988 0.0259 0.0412
vn 0.9279 0.1582 0.3377
vn 0.9172 -0.1108 -0.3827
vn 0.9860 -0.0408 0.1616
vn 0.9956 -0.0920 0.0152
vn 0.9511 0.1471 0.2716
vn 0.9655 -0.0603 0.2535
vn 0.9867 -0.0239 0.1609
vn 0.9587 -0.1488 0.2425
vn 0.9934 0.0436 -0.1065
vn 0.9865 -0.0261 0.1615
vn -0.7061 -0.0563 -0.7058
vn -0.7564 -0.5324 0.3801
vn 0.6074 -0.7370 -0.2964
vn -0.6756 -0.5652 -0.4734
vn -0.7025 -0.4200 0.5746
vn 0.5216 -0.8532 -0.0067
vn -0.7526 -0.6316 0.1862
vn -0.6949 -0.0018 0.7191
vn 0.6825 -0.2540 0.6853
vn -0.6976 -0.7023 0.1419
vn -0.7368 0.3750 0.5625
vn 0.6626 0.2991 0.6867
vn -0.7711 -0.1057 0.6279
vn -0.7365 0.5896 0.3314
vn 0.6393 0.4013 0.6560
vn -0.6436 -0.0491 0.7638
vn -0.6933 0.6559 -0.2987
vn 0.6602 0.7436 0.1058
vn -0.7708 0.5001 0.3946
vn -0.7056 0.4998 -0.5023
vn 0.6934 0.7077 -0.1357
vn -0.6590 0.6574 0.3654
vn -0.7336 -0.0560 -0.6772
vn 0.6112 0.2828 -0.7392
vn -0.7066 -0.4255 -0.5654
vn 0.6681 0.0964 -0.7378
vn -0.6819 0.7301 -0.0432
vn 0.5955 0.5125 -0.6186
vn -0.9991 0.0416 -0.0131
vn 0.6978 -0.0090 -0.7162
vn -0.9923 -0.0528 -0.1118
vn 0.5229 -0.6406 -0.5622
vn -0.9535 -0.2857 0.0957
vn 0.5914 -0.5855 -0.5545
vn -0.9271 -0.3295 0.1785
vn 0.8015 -0.5730 0.1710
vn -0.8719 -0.1780 0.4562
vn 0.7248 -0.1413 0.6743
vn -0.9556 -0.0814 0.2831
vn 0.7087 -0.0719 0.7019
vn -0.9151 0.3693 0.1620
vn 0.7228 0.4137 0.5536
vn -0.9576 0.2492 0.1443
vn 0.7064 0.6427 0.2965
vn -0.9376 0.2881 -0.1949
vn 0.7275 0.6176 -0.2989
vn -0.9847 0.1571 -0.0753
vn 0.6575 0.4624 -0.5948
vn -0.0000 -0.0279 -0.9996
vn -0.0001 -0.7263 -0.6874
vn -0.0003 -0.8632 -0.5049
vn -0.0001 -0.9258 0.3781
vn -0.0001 -0.2874 0.9578
vn -0.0001 -0.1515 0.9885
vn -0.0001 0.7228 0.6910
vn -0.0001 0.8952 0.4457
vn -0.0001 0.8856 -0.4645
vn -0.0001 0.6632 -0.7484
vn -0.6795 -0.7337 -0.0029
vt 0.819559 0.464846
vt 0.928945 0.500000
vt 0.970481 0.500000
vt 0.950000 0.545171
vt 0.319559 0.464846
vt 0.928945 1.000000
vt 0.970481 1.000000
vt 0.950000 0.954829
vt 0.872997 0.500000
vt 0.923001 0.375856
vt 0.825632 0.500000
vt 0.850000 0.545028
vt 0.872997 1.000000
vt 0.423001 0.375856
vt 0.825632 1.000000
vt 0.850000 0.954973
vt 0.975390 0.250462
vt 0.773761 0.500000
vt 0.727668 0.500000
vt 0.750000 0.544109
vt 0.773761 1.000000
vt 0.475390 0.250462
vt 0.727668 1.000000
vt 0.750000 0.955891
vt 0.921433 0.123737
vt 0.683154 0.500000
vt 0.613438 0.500000
vt 0.650000 0.543591
vt 0.683154 1.000000
vt 0.421433 0.123737
vt 0.613438 1.000000
vt 0.650000 0.956409
vt 0.815058 0.050932
vt 0.569674 0.500000
vt 0.525092 0.500000
vt 0.550000 0.543499
vt 0.569674 1.000000
vt 0.315058 0.050932
vt 0.525092 1.000000
vt 0.550000 0.956501
vt 0.680407 0.036671
vt 0.476750 0.500000
vt 0.423229 0.500000
vt 0.450000 0.543578
vt 0.476750 1.000000
vt 0.180407 0.036671
vt 0.423229 1.000000
vt 0.450000 0.956422
vt 0.581858 0.122921
vt 0.376849 0.500000
vt 0.328656 0.500000
vt 0.350000 0.543641
vt 0.376849 1.000000
vt 0.081858 0.122921
vt 0.328656 1.000000
vt 0.350000 0.956359
vt 0.528128 0.252038
vt 0.277773 0.500000
vt 0.219512 0.500000
vt 0.250000 0.543903
vt 0.277773 1.000000
vt 0.028128 0.252038
vt 0.219512 1.000000
vt 0.250000 0.956097
vt 0.575788 0.368567
vt 0.180549 0.500000
vt 0.127880 0.500000
vt 0.150000 0.544299
vt 0.180549 1.000000
vt 0.075788 0.368567
vt 0.127880 1.000000
vt 0.150000 0.955701
vt 0.680762 0.433050
vt 0.091204 0.500000
vt -0.000000 0.500000
vt 0.050000 0.544873
vt -0.000000 1.000000
vt 0.091204 1.000000
vt 0.180762 0.433050
vt 0.050000 0.955127
vt 1.000000 0.506753
vt 0.701818 0.389219
vt -0.000000 0.500000
vt 0.713300 0.382262
vt 0.998441 0.500000
vt 1.000000 0.545059
vt 0.003691 0.545045
vt 0.997881 0.545063
vt 0.213478 0.382400
vt 0.998394 1.000000
vt -0.000000 1.000000
vt 0.201038 0.390842
vt 1.000000 0.994025
vt 0.997877 0.954937
vt 1.000000 0.954941
vt 0.003695 0.954955
vt 1.000000 0.948065
vt 0.840806 0.384704
vt 0.901529 0.500000
vt 0.851241 0.379733
vt 0.896917 0.500000
vt 0.901906 0.545188
vt 0.895128 0.545173
vt 0.351478 0.379721
vt 0.896838 1.000000
vt 0.901642 1.000000
vt 0.340718 0.385033
vt 0.895098 0.954827
vt 0.901911 0.954812
vt 0.897502 0.306437
vt 0.803216 0.500000
vt 0.898276 0.293977
vt 0.798574 0.500000
vt 0.805217 0.544590
vt 0.798141 0.544524
vt 0.798441 1.000000
vt 0.398688 0.293744
vt 0.397278 0.305827
vt 0.803019 1.000000
vt 0.798146 0.955476
vt 0.805269 0.955409
vt 0.867749 0.202922
vt 0.701427 0.500000
vt 0.867907 0.192601
vt 0.698299 0.500000
vt 0.701812 0.543805
vt 0.696873 0.543781
vt 0.698148 1.000000
vt 0.368442 0.191914
vt 0.367818 0.202953
vt 0.701444 1.000000
vt 0.696874 0.956219
vt 0.701815 0.956195
vt 0.869151 0.135655
vt 0.601845 0.500000
vt 0.855565 0.127590
vt 0.596512 0.500000
vt 0.603151 0.543508
vt 0.594935 0.543502
vt 0.355731 0.127904
vt 0.596622 1.000000
vt 0.601920 1.000000
vt 0.369489 0.135578
vt 0.594922 0.956498
vt 0.603150 0.956492
vt 0.754423 0.100419
vt 0.503339 0.500000
vt 0.741296 0.103804
vt 0.498628 0.500000
vt 0.506895 0.543533
vt 0.498229 0.543540
vt 0.241174 0.103669
vt 0.498584 1.000000
vt 0.503544 1.000000
vt 0.254993 0.099953
vt 0.498225 0.956460
vt 0.506902 0.956467
vt 0.670198 0.121926
vt 0.401381 0.500000
vt 0.657991 0.126736
vt 0.396948 0.500000
vt 0.401727 0.543588
vt 0.394359 0.543594
vt 0.396900 1.000000
vt 0.157809 0.126726
vt 0.170203 0.121876
vt 0.401394 1.000000
vt 0.394364 0.956406
vt 0.401734 0.956412
vt 0.620060 0.211456
vt 0.302780 0.500000
vt 0.618178 0.222905
vt 0.298614 0.500000
vt 0.304646 0.543755
vt 0.298137 0.543772
vt 0.117716 0.223055
vt 0.298507 1.000000
vt 0.303084 1.000000
vt 0.119611 0.210415
vt 0.298133 0.956228
vt 0.304653 0.956245
vt 0.601030 0.285511
vt 0.201477 0.500000
vt 0.602527 0.299763
vt 0.197212 0.500000
vt 0.202013 0.544056
vt 0.194436 0.544089
vt 0.197317 1.000000
vt 0.102696 0.299328
vt 0.101074 0.285531
vt 0.201466 1.000000
vt 0.194430 0.955911
vt 0.202017 0.955944
vt 0.677052 0.351016
vt 0.102515 0.500000
vt 0.686243 0.360539
vt 0.098817 0.500000
vt 0.104239 0.544579
vt 0.097276 0.544619
vt 0.186136 0.361954
vt 0.098669 1.000000
vt 0.102856 1.000000
vt 0.175691 0.351252
vt 0.097266 0.955381
vt 0.104244 0.955421
s 0
f 48/96/1 39/77/1 46/91/1
f 55/108/2 7/13/2 8/16/2
f 60/115/3 12/24/3 10/20/3
f 63/120/4 11/21/4 12/24/4
f 68/127/5 16/32/5 14/28/5
f 71/132/6 15/29/6 16/32/6
f 76/139/7 20/40/7 18/36/7
f 79/144/8 19/37/8 20/40/8
f 84/151/9 24/48/9 22/44/9
f 87/156/10 23/45/10 24/48/10
f 92/163/11 28/56/11 26/52/11
f 95/168/12 27/53/12 28/56/12
f 100/175/13 32/64/13 30/60/13
f 103/180/14 31/61/14 32/64/14
f 108/187/15 36/72/15 34/68/15
f 111/192/16 35/69/16 36/72/16
f 116/199/17 40/80/17 38/76/17
f 119/204/18 39/78/18 40/80/18
f 52/103/19 8/16/19 6/12/19
f 52/103/20 5/9/20 50/101/20
f 40/80/21 43/87/21 38/76/21
f 82/148/22 97/170/22 105/182/22
f 94/166/23 86/155/23 77/140/23
f 4/8/24 51/102/24 2/4/24
f 60/115/25 9/18/25 58/113/25
f 51/102/26 1/2/26 2/4/26
f 56/109/27 3/6/27 54/106/27
f 8/16/28 59/114/28 6/12/28
f 68/127/29 13/26/29 66/125/29
f 59/114/30 5/11/30 6/12/30
f 64/121/31 7/15/31 62/119/31
f 12/24/32 67/126/32 10/20/32
f 76/139/33 17/34/33 74/137/33
f 67/126/34 9/19/34 10/20/34
f 72/133/35 11/23/35 70/131/35
f 16/32/36 75/138/36 14/28/36
f 84/151/37 21/42/37 82/149/37
f 75/138/38 13/27/38 14/28/38
f 80/145/39 15/31/39 78/142/39
f 20/40/40 83/150/40 18/36/40
f 92/163/41 25/50/41 90/161/41
f 83/150/42 17/35/42 18/36/42
f 88/157/43 19/39/43 86/154/43
f 24/48/44 91/162/44 22/44/44
f 100/175/45 29/58/45 98/173/45
f 91/162/46 21/43/46 22/44/46
f 96/169/47 23/47/47 94/167/47
f 28/56/48 99/174/48 26/52/48
f 108/187/49 33/66/49 106/185/49
f 99/174/50 25/51/50 26/52/50
f 104/181/51 27/55/51 102/178/51
f 32/64/52 107/186/52 30/60/52
f 116/199/53 37/74/53 114/197/53
f 107/186/54 29/59/54 30/60/54
f 112/193/55 31/63/55 110/191/55
f 36/72/56 115/198/56 34/68/56
f 115/198/57 33/67/57 34/68/57
f 120/205/58 35/71/58 118/202/58
f 44/88/59 1/3/59 42/85/59
f 47/94/60 3/7/60 4/8/60
f 44/88/61 4/8/61 2/4/61
f 43/86/62 42/85/62 41/81/62
f 46/93/63 47/94/63 48/95/63
f 52/103/64 49/99/64 51/102/64
f 53/105/65 56/109/65 54/106/65
f 58/113/66 59/114/66 60/115/66
f 63/120/67 62/119/67 61/116/67
f 66/125/68 67/126/68 68/127/68
f 71/132/69 70/131/69 69/128/69
f 76/139/70 73/135/70 75/138/70
f 77/141/71 80/145/71 78/142/71
f 84/151/72 81/147/72 83/150/72
f 85/153/73 88/157/73 86/154/73
f 90/161/74 91/162/74 92/163/74
f 95/168/75 94/167/75 93/164/75
f 100/175/76 97/171/76 99/174/76
f 101/177/77 104/181/77 102/178/77
f 106/185/78 107/186/78 108/187/78
f 111/192/79 110/191/79 109/188/79
f 116/199/80 113/195/80 115/198/80
f 117/201/81 120/205/81 118/202/81
f 43/86/82 47/94/82 44/88/82
f 55/108/83 51/102/83 56/109/83
f 60/115/84 64/121/84 63/120/84
f 68/127/85 72/133/85 71/132/85
f 79/144/86 75/138/86 80/145/86
f 87/156/87 83/150/87 88/157/87
f 92/163/88 96/169/88 95/168/88
f 103/180/89 99/174/89 104/181/89
f 108/187/90 112/193/90 111/192/90
f 119/204/91 115/198/91 120/205/91
f 43/87/92 37/75/92 38/76/92
f 48/96/93 40/80/93 39/77/93
f 55/108/94 53/105/94 7/13/94
f 60/115/3 63/120/3 12/24/3
f 63/120/95 61/116/95 11/21/95
f 68/127/5 71/132/5 16/32/5
f 71/132/96 69/128/96 15/29/96
f 76/139/7 79/144/7 20/40/7
f 79/144/97 77/141/97 19/37/97
f 84/151/9 87/156/9 24/48/9
f 87/156/98 85/153/98 23/45/98
f 92/163/11 95/168/11 28/56/11
f 95/168/99 93/164/99 27/53/99
f 100/175/13 103/180/13 32/64/13
f 103/180/100 101/177/100 31/61/100
f 108/187/15 111/192/15 36/72/15
f 111/192/101 109/188/101 35/69/101
f 116/199/17 119/204/17 40/80/17
f 119/204/102 117/201/102 39/78/102
f 52/103/19 55/108/19 8/16/19
f 52/103/103 6/12/103 5/9/103
f 40/80/21 48/96/21 43/87/21
f 42/84/104 1/1/104 49/98/104
f 50/100/105 5/10/105 57/110/105
f 42/84/106 49/98/106 50/100/106
f 114/196/107 37/73/107 41/82/107
f 41/82/108 42/84/108 50/100/108
f 50/100/109 57/110/109 58/112/109
f 58/112/110 9/17/110 65/122/110
f 66/124/111 13/25/111 73/134/111
f 58/112/112 65/122/112 66/124/112
f 41/82/113 50/100/113 58/112/113
f 114/196/114 41/82/114 58/112/114
f 66/124/115 73/134/115 74/136/115
f 114/196/116 58/112/116 66/124/116
f 106/184/117 33/65/117 113/194/117
f 113/194/118 114/196/118 66/124/118
f 66/124/119 74/136/119 17/33/119
f 66/124/120 17/33/120 81/146/120
f 106/184/121 113/194/121 66/124/121
f 98/172/122 29/57/122 105/182/122
f 105/182/123 106/184/123 66/124/123
f 66/124/124 81/146/124 82/148/124
f 82/148/125 21/41/125 89/158/125
f 90/160/126 25/49/126 97/170/126
f 82/148/127 89/158/127 90/160/127
f 105/182/128 66/124/128 82/148/128
f 97/170/129 98/172/129 105/182/129
f 82/148/130 90/160/130 97/170/130
f 54/107/131 3/5/131 45/89/131
f 46/92/132 39/79/132 117/200/132
f 53/104/133 54/107/133 45/89/133
f 45/89/134 46/92/134 117/200/134
f 118/203/135 35/70/135 109/189/135
f 53/104/136 45/89/136 117/200/136
f 118/203/137 109/189/137 110/190/137
f 53/104/138 117/200/138 118/203/138
f 62/118/139 7/14/139 53/104/139
f 70/130/140 11/22/140 61/117/140
f 61/117/141 62/118/141 53/104/141
f 53/104/142 118/203/142 110/190/142
f 110/190/143 31/62/143 101/176/143
f 102/179/144 27/54/144 93/165/144
f 110/190/145 101/176/145 102/179/145
f 61/117/146 53/104/146 110/190/146
f 70/130/147 61/117/147 110/190/147
f 102/179/148 93/165/148 94/166/148
f 70/130/149 110/190/149 102/179/149
f 78/143/150 15/30/150 69/129/150
f 69/129/151 70/130/151 102/179/151
f 94/166/152 23/46/152 85/152/152
f 69/129/153 102/179/153 94/166/153
f 77/140/154 78/143/154 69/129/154
f 86/155/155 19/38/155 77/140/155
f 94/166/156 85/152/156 86/155/156
f 77/140/157 69/129/157 94/166/157
f 4/8/24 56/109/24 51/102/24
f 60/115/158 10/20/158 9/18/158
f 51/102/159 49/99/159 1/2/159
f 56/109/160 4/8/160 3/6/160
f 8/16/28 64/121/28 59/114/28
f 68/127/161 14/28/161 13/26/161
f 59/114/162 57/111/162 5/11/162
f 64/121/163 8/16/163 7/15/163
f 12/24/32 72/133/32 67/126/32
f 76/139/164 18/36/164 17/34/164
f 67/126/165 65/123/165 9/19/165
f 72/133/166 12/24/166 11/23/166
f 16/32/36 80/145/36 75/138/36
f 84/151/167 22/44/167 21/42/167
f 75/138/168 73/135/168 13/27/168
f 80/145/169 16/32/169 15/31/169
f 20/40/40 88/157/40 83/150/40
f 92/163/170 26/52/170 25/50/170
f 83/150/171 81/147/171 17/35/171
f 88/157/172 20/40/172 19/39/172
f 24/48/44 96/169/44 91/162/44
f 100/175/173 30/60/173 29/58/173
f 91/162/174 89/159/174 21/43/174
f 96/169/175 24/48/175 23/47/175
f 28/56/48 104/181/48 99/174/48
f 108/187/176 34/68/176 33/66/176
f 99/174/177 97/171/177 25/51/177
f 104/181/178 28/56/178 27/55/178
f 32/64/52 112/193/52 107/186/52
f 116/199/179 38/76/179 37/74/179
f 107/186/180 105/183/180 29/59/180
f 112/193/181 32/64/181 31/63/181
f 36/72/56 120/205/56 115/198/56
f 115/198/182 113/195/182 33/67/182
f 120/205/183 36/72/183 35/71/183
f 44/88/184 2/4/184 1/3/184
f 47/94/185 45/90/185 3/7/185
f 44/88/61 47/94/61 4/8/61
f 43/86/186 44/88/186 42/85/186
f 46/93/187 45/90/187 47/94/187
f 52/103/188 50/101/188 49/99/188
f 53/105/189 55/108/189 56/109/189
f 58/113/190 57/111/190 59/114/190
f 63/120/191 64/121/191 62/119/191
f 66/125/192 65/123/192 67/126/192
f 71/132/193 72/133/193 70/131/193
f 76/139/194 74/137/194 73/135/194
f 77/141/195 79/144/195 80/145/195
f 84/151/196 82/149/196 81/147/196
f 85/153/197 87/156/197 88/157/197
f 90/161/198 89/159/198 91/162/198
f 95/168/199 96/169/199 94/167/199
f 100/175/200 98/173/200 97/171/200
f 101/177/201 103/180/201 104/181/201
f 106/185/202 105/183/202 107/186/202
f 111/192/203 112/193/203 110/191/203
f 116/199/204 114/197/204 113/195/204
f 117/201/205 119/204/205 120/205/205
f 43/86/206 48/97/206 47/94/206
f 55/108/207 52/103/207 51/102/207
f 60/115/208 59/114/208 64/121/208
f 68/127/209 67/126/209 72/133/209
f 79/144/210 76/139/210 75/138/210
f 87/156/211 84/151/211 83/150/211
f 92/163/212 91/162/212 96/169/212
f 103/180/213 100/175/213 99/174/213
f 108/187/214 107/186/214 112/193/214
f 119/204/215 116/199/215 115/198/215
f 43/87/216 41/83/216 37/75/216
