{
    "asset" : {
        "generator" : "Khronos glTF Blender I/O v3.4.50",
        "version" : "2.0"
    },
    "scene" : 0,
    "scenes" : [
        {
            "name" : "Scene",
            "nodes" : [
                0
            ]
        }
    ],
    "nodes" : [
        {
            "mesh" : 0,
            "name" : "Exploding",
            "scale" : [
                3.6000001430511475,
                3.6000001430511475,
                3.6000001430511475
            ],
            "translation" : [
                0,
                0,
                4
            ]
        }
    ],
    "meshes" : [
        {
            "name" : "Icosphere",
            "primitives" : [
                {
                    "attributes" : {
                        "POSITION" : 0,
                        "TEXCOORD_0" : 1,
                        "NORMAL" : 2
                    },
                    "indices" : 3
                }
            ]
        }
    ],
    "accessors" : [
        {
            "bufferView" : 0,
            "componentType" : 5126,
            "count" : 14174,
            "max" : [
                0.9510578513145447,
                0.9999999403953552,
                1.1864935159683228
            ],
            "min" : [
                -0.9510578513145447,
                -0.9999999403953552,
                -1
            ],
            "type" : "VEC3"
        },
        {
            "bufferView" : 1,
            "componentType" : 5126,
            "count" : 14174,
            "type" : "VEC2"
        },
        {
            "bufferView" : 2,
            "componentType" : 5126,
            "count" : 14174,
            "type" : "VEC3"
        },
        {
            "bufferView" : 3,
            "componentType" : 5123,
            "count" : 14796,
            "type" : "SCALAR"
        }
    ],
    "bufferViews" : [
        {
            "buffer" : 0,
            "byteLength" : 170088,
            "byteOffset" : 0,
            "target" : 34962
        },
        {
            "buffer" : 0,
            "byteLength" : 113392,
            "byteOffset" : 170088,
            "target" : 34962
        },
        {
            "buffer" : 0,
            "byteLength" : 170088,
            "byteOffset" : 283480,
            "target" : 34962
        },
        {
            "buffer" : 0,
            "byteLength" : 29592,
            "byteOffset" : 453568,
            "target" : 34963
        }
    ],
    "buffers" : [
        {
            "byteLength" : 483160,
            "uri" : "exploding.bin"
        }
    ]
}
