{
    "asset" : {
        "generator" : "Khronos glTF Blender I/O v3.4.50",
        "version" : "2.0"
    },
    "scene" : 0,
    "scenes" : [
        {
            "name" : "Scene",
            "nodes" : [
                0
            ]
        }
    ],
    "nodes" : [
        {
            "mesh" : 0,
            "name" : "exploding",
            "rotation" : [
                0.70710688829422,
                0,
                0,
                0.7071066498756409
            ]
        }
    ],
    "meshes" : [
        {
            "name" : "exploding",
            "primitives" : [
                {
                    "attributes" : {
                        "POSITION" : 0,
                        "TEXCOORD_0" : 1,
                        "NORMAL" : 2
                    },
                    "indices" : 3
                }
            ]
        }
    ],
    "accessors" : [
        {
            "bufferView" : 0,
            "componentType" : 5126,
            "count" : 14787,
            "max" : [
                3.4238080978393555,
                8.57137680053711,
                3.5999999046325684
            ],
            "min" : [
                -3.4238080978393555,
                0.699999988079071,
                -3.5999999046325684
            ],
            "type" : "VEC3"
        },
        {
            "bufferView" : 1,
            "componentType" : 5126,
            "count" : 14787,
            "type" : "VEC2"
        },
        {
            "bufferView" : 2,
            "componentType" : 5126,
            "count" : 14787,
            "type" : "VEC3"
        },
        {
            "bufferView" : 3,
            "componentType" : 5123,
            "count" : 14796,
            "type" : "SCALAR"
        }
    ],
    "bufferViews" : [
        {
            "buffer" : 0,
            "byteLength" : 177444,
            "byteOffset" : 0,
            "target" : 34962
        },
        {
            "buffer" : 0,
            "byteLength" : 118296,
            "byteOffset" : 177444,
            "target" : 34962
        },
        {
            "buffer" : 0,
            "byteLength" : 177444,
            "byteOffset" : 295740,
            "target" : 34962
        },
        {
            "buffer" : 0,
            "byteLength" : 29592,
            "byteOffset" : 473184,
            "target" : 34963
        }
    ],
    "buffers" : [
        {
            "byteLength" : 502776,
            "uri" : "exploding.bin"
        }
    ]
}
