{
    "asset" : {
        "generator" : "Khronos glTF Blender I/O v3.4.50",
        "version" : "2.0"
    },
    "scene" : 0,
    "scenes" : [
        {
            "name" : "Scene",
            "nodes" : [
                0
            ]
        }
    ],
    "nodes" : [
        {
            "mesh" : 0,
            "name" : "handle",
            "rotation" : [
                0.70710688829422,
                0,
                0,
                0.7071066498756409
            ]
        }
    ],
    "meshes" : [
        {
            "name" : "handle",
            "primitives" : [
                {
                    "attributes" : {
                        "POSITION" : 0,
                        "TEXCOORD_0" : 1,
                        "NORMAL" : 2
                    },
                    "indices" : 3
                }
            ]
        }
    ],
    "accessors" : [
        {
            "bufferView" : 0,
            "componentType" : 5126,
            "count" : 256950,
            "max" : [
                4.2521138191223145,
                9.252113342285156,
                0.764274001121521
            ],
            "min" : [
                -4.2521138191223145,
                0.7478870153427124,
                -0.764274001121521
            ],
            "type" : "VEC3"
        },
        {
            "bufferView" : 1,
            "componentType" : 5126,
            "count" : 256950,
            "type" : "VEC2"
        },
        {
            "bufferView" : 2,
            "componentType" : 5126,
            "count" : 256950,
            "type" : "VEC3"
        },
        {
            "bufferView" : 3,
            "componentType" : 5125,
            "count" : 257760,
            "type" : "SCALAR"
        }
    ],
    "bufferViews" : [
        {
            "buffer" : 0,
            "byteLength" : 3083400,
            "byteOffset" : 0,
            "target" : 34962
        },
        {
            "buffer" : 0,
            "byteLength" : 2055600,
            "byteOffset" : 3083400,
            "target" : 34962
        },
        {
            "buffer" : 0,
            "byteLength" : 3083400,
            "byteOffset" : 5139000,
            "target" : 34962
        },
        {
            "buffer" : 0,
            "byteLength" : 1031040,
            "byteOffset" : 8222400,
            "target" : 34963
        }
    ],
    "buffers" : [
        {
            "byteLength" : 9253440,
            "uri" : "handling.bin"
        }
    ]
}
