{
    "asset" : {
        "generator" : "Khronos glTF Blender I/O v3.4.50",
        "version" : "2.0"
    },
    "scene" : 0,
    "scenes" : [
        {
            "name" : "Scene",
            "nodes" : [
                0
            ]
        }
    ],
    "nodes" : [
        {
            "mesh" : 0,
            "name" : "Vampire",
            "rotation" : [
                0.5000001192092896,
                0.4999999403953552,
                0.4999999403953552,
                0.4999999403953552
            ],
            "scale" : [
                0.20000004768371582,
                0.20000004768371582,
                0.20000004768371582
            ],
            "translation" : [
                0,
                0,
                -6
            ]
        }
    ],
    "meshes" : [
        {
            "name" : "pickup_health",
            "primitives" : [
                {
                    "attributes" : {
                        "POSITION" : 0,
                        "TEXCOORD_0" : 1,
                        "NORMAL" : 2
                    },
                    "indices" : 3
                }
            ]
        }
    ],
    "accessors" : [
        {
            "bufferView" : 0,
            "componentType" : 5126,
            "count" : 13054,
            "max" : [
                8.804426193237305,
                60.89784240722656,
                23.780000686645508
            ],
            "min" : [
                -8.804266929626465,
                9.354005813598633,
                -25.675207138061523
            ],
            "type" : "VEC3"
        },
        {
            "bufferView" : 1,
            "componentType" : 5126,
            "count" : 13054,
            "type" : "VEC2"
        },
        {
            "bufferView" : 2,
            "componentType" : 5126,
            "count" : 13054,
            "type" : "VEC3"
        },
        {
            "bufferView" : 3,
            "componentType" : 5123,
            "count" : 13086,
            "type" : "SCALAR"
        }
    ],
    "bufferViews" : [
        {
            "buffer" : 0,
            "byteLength" : 156648,
            "byteOffset" : 0,
            "target" : 34962
        },
        {
            "buffer" : 0,
            "byteLength" : 104432,
            "byteOffset" : 156648,
            "target" : 34962
        },
        {
            "buffer" : 0,
            "byteLength" : 156648,
            "byteOffset" : 261080,
            "target" : 34962
        },
        {
            "buffer" : 0,
            "byteLength" : 26172,
            "byteOffset" : 417728,
            "target" : 34963
        }
    ],
    "buffers" : [
        {
            "byteLength" : 443900,
            "uri" : "vampire.bin"
        }
    ]
}
