{
    "asset" : {
        "generator" : "Khronos glTF Blender I/O v3.4.50",
        "version" : "2.0"
    },
    "scene" : 0,
    "scenes" : [
        {
            "name" : "Scene",
            "nodes" : [
                0
            ]
        }
    ],
    "nodes" : [
        {
            "mesh" : 0,
            "name" : "vampire",
            "rotation" : [
                0.70710688829422,
                0,
                0,
                0.7071066498756409
            ]
        }
    ],
    "meshes" : [
        {
            "name" : "vampire",
            "primitives" : [
                {
                    "attributes" : {
                        "POSITION" : 0,
                        "TEXCOORD_0" : 1,
                        "NORMAL" : 2
                    },
                    "indices" : 3
                }
            ]
        }
    ],
    "accessors" : [
        {
            "bufferView" : 0,
            "componentType" : 5126,
            "count" : 16212,
            "max" : [
                4.756000995635986,
                11.179567337036133,
                1.7608530521392822
            ],
            "min" : [
                -5.135039806365967,
                0.8708009719848633,
                -1.7608850002288818
            ],
            "type" : "VEC3"
        },
        {
            "bufferView" : 1,
            "componentType" : 5126,
            "count" : 16212,
            "type" : "VEC2"
        },
        {
            "bufferView" : 2,
            "componentType" : 5126,
            "count" : 16212,
            "type" : "VEC3"
        },
        {
            "bufferView" : 3,
            "componentType" : 5123,
            "count" : 16272,
            "type" : "SCALAR"
        }
    ],
    "bufferViews" : [
        {
            "buffer" : 0,
            "byteLength" : 194544,
            "byteOffset" : 0,
            "target" : 34962
        },
        {
            "buffer" : 0,
            "byteLength" : 129696,
            "byteOffset" : 194544,
            "target" : 34962
        },
        {
            "buffer" : 0,
            "byteLength" : 194544,
            "byteOffset" : 324240,
            "target" : 34962
        },
        {
            "buffer" : 0,
            "byteLength" : 32544,
            "byteOffset" : 518784,
            "target" : 34963
        }
    ],
    "buffers" : [
        {
            "byteLength" : 551328,
            "uri" : "vampire.bin"
        }
    ]
}
