{
    "asset" : {
        "generator" : "Khronos glTF Blender I/O v3.4.50",
        "version" : "2.0"
    },
    "scene" : 0,
    "scenes" : [
        {
            "name" : "Pickups",
            "nodes" : [
                0
            ]
        }
    ],
    "nodes" : [
        {
            "mesh" : 0,
            "name" : "Vampire",
            "rotation" : [
                0.5000000596046448,
                0.5,
                -0.5,
                0.5
            ],
            "scale" : [
                0.19999998807907104,
                0.19999998807907104,
                0.19999998807907104
            ]
        }
    ],
    "meshes" : [
        {
            "name" : "pickup_health",
            "primitives" : [
                {
                    "attributes" : {
                        "POSITION" : 0,
                        "TEXCOORD_0" : 1,
                        "NORMAL" : 2
                    },
                    "indices" : 3
                }
            ]
        }
    ],
    "accessors" : [
        {
            "bufferView" : 0,
            "componentType" : 5126,
            "count" : 12990,
            "max" : [
                8.804426193237305,
                23.780000686645508,
                -9.354005813598633
            ],
            "min" : [
                -8.804266929626465,
                -25.675207138061523,
                -60.89784240722656
            ],
            "type" : "VEC3"
        },
        {
            "bufferView" : 1,
            "componentType" : 5126,
            "count" : 12990,
            "type" : "VEC2"
        },
        {
            "bufferView" : 2,
            "componentType" : 5126,
            "count" : 12990,
            "type" : "VEC3"
        },
        {
            "bufferView" : 3,
            "componentType" : 5123,
            "count" : 13086,
            "type" : "SCALAR"
        }
    ],
    "bufferViews" : [
        {
            "buffer" : 0,
            "byteLength" : 155880,
            "byteOffset" : 0,
            "target" : 34962
        },
        {
            "buffer" : 0,
            "byteLength" : 103920,
            "byteOffset" : 155880,
            "target" : 34962
        },
        {
            "buffer" : 0,
            "byteLength" : 155880,
            "byteOffset" : 259800,
            "target" : 34962
        },
        {
            "buffer" : 0,
            "byteLength" : 26172,
            "byteOffset" : 415680,
            "target" : 34963
        }
    ],
    "buffers" : [
        {
            "byteLength" : 441852,
            "uri" : "vampire.bin"
        }
    ]
}
